<svg xmlns="http://www.w3.org/2000/svg" width="512" height="512" viewBox="0 0 512 512">
  <defs>
    <linearGradient id="bg" x1="0" y1="0" x2="1" y2="1">
      <stop offset="0%"   stop-color="#6366f1"/>
      <stop offset="60%"  stop-color="#5b21b6"/>
      <stop offset="100%" stop-color="#4c1d95"/>
    </linearGradient>
  </defs>
  <rect width="512" height="512" fill="url(#bg)"/>
  <g transform="translate(92, 92) scale(13.666666666666666)"
     fill="none" stroke="white" stroke-width="1.6" stroke-linecap="round" stroke-linejoin="round">
    <path d="M12 10a2 2 0 0 0-2 2c0 1.02-.1 2.51-.26 4"/>
    <path d="M14 13.12c0 2.38 0 6.38-1 8.88"/>
    <path d="M17.29 21.02c.12-.6.43-2.3.5-3.02"/>
    <path d="M2 12a10 10 0 0 1 18-6"/>
    <path d="M2 16h.01"/>
    <path d="M21.8 16c.2-2 .131-5.354 0-6"/>
    <path d="M5 19.5C5.5 18 6 15 6 12a6 6 0 0 1 .34-2"/>
    <path d="M8.65 22c.21-.66.45-1.32.57-2"/>
    <path d="M9 6.8a6 6 0 0 1 9 5.2v2"/>
  </g>
</svg>